<svg width="26" height="19" viewBox="0 0 26 19" fill="none" xmlns="http://www.w3.org/2000/svg">
<path d="M12.5024 18.75C11.9706 18.7473 11.446 18.6263 10.9667 18.3957C10.4875 18.165 10.0656 17.8306 9.7316 17.4167L0.960767 6.79167C0.448254 6.15202 0.125737 5.38126 0.0299686 4.56722C-0.0657999 3.75319 0.0690316 2.92863 0.419099 2.1875C0.703015 1.54339 1.16634 0.994611 1.75372 0.606714C2.34111 0.218816 3.02774 0.00819386 3.7316 0H21.2733C21.9771 0.00819386 22.6638 0.218816 23.2511 0.606714C23.8385 0.994611 24.3018 1.54339 24.5858 2.1875C24.9358 2.92863 25.0707 3.75319 24.9749 4.56722C24.8791 5.38126 24.5566 6.15202 24.0441 6.79167L15.2733 17.4167C14.9393 17.8306 14.5174 18.165 14.0381 18.3957C13.5589 18.6263 13.0343 18.7473 12.5024 18.75Z" fill="url(#paint0_linear_26_63)"/>
<defs>
<linearGradient id="paint0_linear_26_63" x1="12.5024" y1="0" x2="12.5024" y2="18.75" gradientUnits="userSpaceOnUse">
<stop stop-color="#009FA1"/>
<stop offset="1" stop-color="#00DA9D"/>
</linearGradient>
</defs>
</svg>
