<svg width="50" height="72" viewBox="0 0 50 72" fill="none" xmlns="http://www.w3.org/2000/svg">
<path d="M48.9731 35.8456H45.0356L25.8031 62.7883C25.6083 63.0525 25.3094 63.2081 25.0009 63.2081C24.6847 63.2081 24.3935 63.0525 24.193 62.7883L4.9662 35.8456H1.02675C0.629526 35.8456 0.270868 36.0906 0.103108 36.4827C-0.0704357 36.8748 -0.0203007 37.3414 0.218805 37.6781L24.1968 71.2649C24.3974 71.5313 24.6885 71.6911 25.0048 71.6911C25.3133 71.6911 25.6122 71.5313 25.8069 71.2649L49.7811 37.676C50.0279 37.3414 50.0665 36.8726 49.8929 36.4806C49.729 36.0906 49.3665 35.8456 48.9731 35.8456Z" fill="url(#paint0_linear_25_53)"/>
<path d="M48.9731 17.9228H45.0356L25.8031 44.8655C25.6083 45.1298 25.3094 45.2853 25.0009 45.2853C24.6847 45.2853 24.3935 45.1298 24.193 44.8655L4.9662 17.9228H1.02675C0.629526 17.9228 0.270868 18.1678 0.103108 18.5599C-0.0704357 18.952 -0.0203007 19.4186 0.218805 19.7553L24.1968 53.3421C24.3974 53.6085 24.6885 53.7683 25.0048 53.7683C25.3133 53.7683 25.6122 53.6085 25.8069 53.3421L49.7811 19.7532C50.0279 19.4186 50.0665 18.9498 49.8929 18.5578C49.729 18.1678 49.3665 17.9228 48.9731 17.9228Z" fill="url(#paint1_linear_25_53)"/>
<path d="M48.9731 0H45.0356L25.8031 26.9428C25.6083 27.207 25.3094 27.3626 25.0009 27.3626C24.6847 27.3626 24.3935 27.207 24.193 26.9428L4.9662 0H1.02675C0.629526 0 0.270868 0.245051 0.103108 0.637132C-0.0704357 1.02921 -0.0203007 1.49587 0.218805 1.83255L24.1968 35.4194C24.3974 35.6857 24.6885 35.8456 25.0048 35.8456C25.3133 35.8456 25.6122 35.6857 25.8069 35.4194L49.7811 1.83042C50.0279 1.49587 50.0665 1.02708 49.8929 0.635001C49.729 0.245051 49.3665 0 48.9731 0Z" fill="url(#paint2_linear_25_53)"/>
<defs>
<linearGradient id="paint0_linear_25_53" x1="24.9998" y1="35.8456" x2="24.9998" y2="71.6911" gradientUnits="userSpaceOnUse">
<stop stop-color="#00DA9D"/>
<stop offset="1" stop-color="#008192"/>
</linearGradient>
<linearGradient id="paint1_linear_25_53" x1="24.9998" y1="17.9228" x2="24.9998" y2="53.7683" gradientUnits="userSpaceOnUse">
<stop stop-color="#00DA9D"/>
<stop offset="1" stop-color="#008192"/>
</linearGradient>
<linearGradient id="paint2_linear_25_53" x1="24.9998" y1="0" x2="24.9998" y2="35.8456" gradientUnits="userSpaceOnUse">
<stop stop-color="#00DA9D"/>
<stop offset="1" stop-color="#008192"/>
</linearGradient>
</defs>
</svg>
