<svg width="1736" height="810" viewBox="0 0 1736 810" fill="none" xmlns="http://www.w3.org/2000/svg">
<g clip-path="url(#clip0_233_11)">
<path d="M1190.25 195.814L1115.15 104.934L1149.4 60.1705L1256.75 108.92L1331.85 199.801L1297.59 244.564L1190.25 195.814ZM1190.25 195.814L1155.99 240.578" stroke="#009FA1" stroke-opacity="0.3" stroke-width="2"/>
<path d="M1256.75 108.92L1222.49 153.684L1115.15 104.934L1080.89 149.697L1155.99 240.578L1263.33 289.327L1297.59 244.564L1222.49 153.684" stroke="#009FA1" stroke-opacity="0.3" stroke-width="2"/>
</g>
<g clip-path="url(#clip1_233_11)">
<path d="M1384.14 176.261L1309.04 85.3813L1343.3 40.6179L1450.65 89.3678L1525.75 180.248L1491.49 225.011L1384.14 176.261ZM1384.14 176.261L1349.88 221.025" stroke="#009FA1" stroke-opacity="0.3" stroke-width="2"/>
<path d="M1450.65 89.3678L1416.39 134.131L1309.04 85.3813L1274.78 130.145L1349.88 221.025L1457.23 269.775L1491.49 225.011L1416.39 134.131" stroke="#009FA1" stroke-opacity="0.3" stroke-width="2"/>
</g>
<g clip-path="url(#clip2_233_11)">
<path d="M1371.52 335.534L1296.42 244.654L1330.67 199.891L1438.02 248.641L1513.12 339.521L1478.86 384.284L1371.52 335.534ZM1371.52 335.534L1337.26 380.298" stroke="#009FA1" stroke-opacity="0.3" stroke-width="2"/>
<path d="M1438.02 248.641L1403.76 293.404L1296.42 244.654L1262.16 289.418L1337.26 380.298L1444.6 429.048L1478.86 384.284L1403.76 293.404" stroke="#009FA1" stroke-opacity="0.3" stroke-width="2"/>
</g>
<g clip-path="url(#clip3_233_11)">
<path d="M1384.14 176.261L1309.04 85.3813L1343.3 40.6179L1450.65 89.3678L1525.75 180.248L1491.49 225.011L1384.14 176.261ZM1384.14 176.261L1349.88 221.025" stroke="#009FA1" stroke-opacity="0.3" stroke-width="2"/>
<path d="M1450.65 89.3678L1416.39 134.131L1309.04 85.3813L1274.78 130.145L1349.88 221.025L1457.23 269.775L1491.49 225.011L1416.39 134.131" stroke="#009FA1" stroke-opacity="0.3" stroke-width="2"/>
</g>
<g clip-path="url(#clip4_233_11)">
<path d="M1578.04 156.709L1502.94 65.8285L1537.2 21.0651L1644.54 69.8151L1719.64 160.695L1685.38 205.459L1578.04 156.709ZM1578.04 156.709L1543.78 201.472" stroke="#009FA1" stroke-opacity="0.3" stroke-width="2"/>
<path d="M1644.54 69.8151L1610.28 114.578L1502.94 65.8285L1468.68 110.592L1543.78 201.472L1651.13 250.222L1685.38 205.459L1610.28 114.578" stroke="#009FA1" stroke-opacity="0.3" stroke-width="2"/>
</g>
<g clip-path="url(#clip5_233_11)">
<path d="M1565.41 315.982L1490.31 225.101L1524.57 180.338L1631.92 229.088L1707.02 319.968L1672.76 364.732L1565.41 315.982ZM1565.41 315.982L1531.15 360.745" stroke="#009FA1" stroke-opacity="0.3" stroke-width="2"/>
<path d="M1631.92 229.088L1597.66 273.851L1490.31 225.101L1456.05 269.865L1531.15 360.745L1638.5 409.495L1672.76 364.732L1597.66 273.851" stroke="#009FA1" stroke-opacity="0.3" stroke-width="2"/>
</g>
<g clip-path="url(#clip6_233_11)">
<path d="M1371.52 335.534L1296.42 244.654L1330.67 199.891L1438.02 248.641L1513.12 339.521L1478.86 384.284L1371.52 335.534ZM1371.52 335.534L1337.26 380.298" stroke="#009FA1" stroke-opacity="0.3" stroke-width="2"/>
<path d="M1438.02 248.641L1403.76 293.404L1296.42 244.654L1262.16 289.418L1337.26 380.298L1444.6 429.048L1478.86 384.284L1403.76 293.404" stroke="#009FA1" stroke-opacity="0.3" stroke-width="2"/>
</g>
<g clip-path="url(#clip7_233_11)">
<path d="M1565.41 315.982L1490.31 225.101L1524.57 180.338L1631.92 229.088L1707.02 319.968L1672.76 364.732L1565.41 315.982ZM1565.41 315.982L1531.15 360.745" stroke="#009FA1" stroke-opacity="0.3" stroke-width="2"/>
<path d="M1631.92 229.088L1597.66 273.851L1490.31 225.101L1456.05 269.865L1531.15 360.745L1638.5 409.495L1672.76 364.732L1597.66 273.851" stroke="#009FA1" stroke-opacity="0.3" stroke-width="2"/>
</g>
<g clip-path="url(#clip8_233_11)">
<path d="M1552.78 475.254L1477.68 384.374L1511.94 339.611L1619.29 388.361L1694.39 479.241L1660.13 524.004L1552.78 475.254ZM1552.78 475.254L1518.53 520.018" stroke="#009FA1" stroke-opacity="0.3" stroke-width="2"/>
<path d="M1619.29 388.361L1585.03 433.124L1477.68 384.374L1443.43 429.138L1518.53 520.018L1625.87 568.768L1660.13 524.004L1585.03 433.124" stroke="#009FA1" stroke-opacity="0.3" stroke-width="2"/>
</g>
<g clip-path="url(#clip9_233_11)">
<path d="M545.519 613.569L620.619 704.449L586.36 749.212L479.017 700.463L403.917 609.582L438.176 564.819L545.519 613.569ZM545.519 613.569L579.778 568.805" stroke="#009FA1" stroke-opacity="0.3" stroke-width="2"/>
<path d="M479.017 700.463L513.276 655.699L620.619 704.449L654.878 659.686L579.778 568.805L472.434 520.055L438.176 564.819L513.276 655.699" stroke="#009FA1" stroke-opacity="0.3" stroke-width="2"/>
</g>
<g clip-path="url(#clip10_233_11)">
<path d="M351.622 633.122L426.722 724.002L392.463 768.765L285.119 720.015L210.019 629.135L244.278 584.372L351.622 633.122ZM351.622 633.122L385.881 588.358" stroke="#009FA1" stroke-opacity="0.3" stroke-width="2"/>
<path d="M285.119 720.015L319.378 675.252L426.722 724.002L460.981 679.238L385.881 588.358L278.537 539.608L244.278 584.372L319.378 675.252" stroke="#009FA1" stroke-opacity="0.3" stroke-width="2"/>
</g>
<g clip-path="url(#clip11_233_11)">
<path d="M364.25 473.849L439.35 564.729L405.091 609.492L297.747 560.742L222.647 469.862L256.906 425.099L364.25 473.849ZM364.25 473.849L398.509 429.085" stroke="#009FA1" stroke-opacity="0.3" stroke-width="2"/>
<path d="M297.747 560.742L332.006 515.979L439.35 564.729L473.609 519.965L398.509 429.085L291.165 380.335L256.906 425.099L332.006 515.979" stroke="#009FA1" stroke-opacity="0.3" stroke-width="2"/>
</g>
<g clip-path="url(#clip12_233_11)">
<path d="M351.622 633.122L426.722 724.002L392.463 768.765L285.119 720.015L210.019 629.135L244.278 584.372L351.622 633.122ZM351.622 633.122L385.881 588.358" stroke="#009FA1" stroke-opacity="0.3" stroke-width="2"/>
<path d="M285.119 720.015L319.378 675.252L426.722 724.002L460.981 679.238L385.881 588.358L278.537 539.608L244.278 584.372L319.378 675.252" stroke="#009FA1" stroke-opacity="0.3" stroke-width="2"/>
</g>
<g clip-path="url(#clip13_233_11)">
<path d="M157.724 652.674L232.824 743.554L198.566 788.318L91.2219 739.568L16.1218 648.688L50.3808 603.924L157.724 652.674ZM157.724 652.674L191.983 607.911" stroke="#009FA1" stroke-opacity="0.3" stroke-width="2"/>
<path d="M91.2219 739.568L125.481 694.804L232.824 743.554L267.083 698.791L191.983 607.911L84.6397 559.161L50.3808 603.924L125.481 694.804" stroke="#009FA1" stroke-opacity="0.3" stroke-width="2"/>
</g>
<g clip-path="url(#clip14_233_11)">
<path d="M170.352 493.401L245.452 584.282L211.193 629.045L103.85 580.295L28.7495 489.415L63.0084 444.651L170.352 493.401ZM170.352 493.401L204.611 448.638" stroke="#009FA1" stroke-opacity="0.3" stroke-width="2"/>
<path d="M103.85 580.295L138.108 535.532L245.452 584.282L279.711 539.518L204.611 448.638L97.2673 399.888L63.0084 444.651L138.108 535.532" stroke="#009FA1" stroke-opacity="0.3" stroke-width="2"/>
</g>
<g clip-path="url(#clip15_233_11)">
<path d="M364.25 473.849L439.35 564.729L405.091 609.492L297.747 560.742L222.647 469.862L256.906 425.099L364.25 473.849ZM364.25 473.849L398.509 429.085" stroke="#009FA1" stroke-opacity="0.3" stroke-width="2"/>
<path d="M297.747 560.742L332.006 515.979L439.35 564.729L473.609 519.965L398.509 429.085L291.165 380.335L256.906 425.099L332.006 515.979" stroke="#009FA1" stroke-opacity="0.3" stroke-width="2"/>
</g>
<g clip-path="url(#clip16_233_11)">
<path d="M170.352 493.401L245.452 584.282L211.193 629.045L103.85 580.295L28.7495 489.415L63.0084 444.651L170.352 493.401ZM170.352 493.401L204.611 448.638" stroke="#009FA1" stroke-opacity="0.3" stroke-width="2"/>
<path d="M103.85 580.295L138.108 535.532L245.452 584.282L279.711 539.518L204.611 448.638L97.2673 399.888L63.0084 444.651L138.108 535.532" stroke="#009FA1" stroke-opacity="0.3" stroke-width="2"/>
</g>
<g clip-path="url(#clip17_233_11)">
<path d="M182.98 334.128L258.08 425.009L223.821 469.772L116.477 421.022L41.3773 330.142L75.6362 285.379L182.98 334.128ZM182.98 334.128L217.239 289.365" stroke="#009FA1" stroke-opacity="0.3" stroke-width="2"/>
<path d="M116.477 421.022L150.736 376.259L258.08 425.009L292.339 380.245L217.239 289.365L109.895 240.615L75.6362 285.379L150.736 376.259" stroke="#009FA1" stroke-opacity="0.3" stroke-width="2"/>
</g>
<defs>
<clipPath id="clip0_233_11">
<rect width="229.744" height="165.79" fill="white" transform="translate(1165.53 39.1053) rotate(37.428)"/>
</clipPath>
<clipPath id="clip1_233_11">
<rect width="229.744" height="165.79" fill="white" transform="translate(1359.42 19.5527) rotate(37.428)"/>
</clipPath>
<clipPath id="clip2_233_11">
<rect width="229.744" height="165.79" fill="white" transform="translate(1346.8 178.826) rotate(37.428)"/>
</clipPath>
<clipPath id="clip3_233_11">
<rect width="229.744" height="165.79" fill="white" transform="translate(1359.42 19.5527) rotate(37.428)"/>
</clipPath>
<clipPath id="clip4_233_11">
<rect width="229.744" height="165.79" fill="white" transform="translate(1553.32) rotate(37.428)"/>
</clipPath>
<clipPath id="clip5_233_11">
<rect width="229.744" height="165.79" fill="white" transform="translate(1540.69 159.273) rotate(37.428)"/>
</clipPath>
<clipPath id="clip6_233_11">
<rect width="229.744" height="165.79" fill="white" transform="translate(1346.8 178.826) rotate(37.428)"/>
</clipPath>
<clipPath id="clip7_233_11">
<rect width="229.744" height="165.79" fill="white" transform="translate(1540.69 159.273) rotate(37.428)"/>
</clipPath>
<clipPath id="clip8_233_11">
<rect width="229.744" height="165.79" fill="white" transform="translate(1528.07 318.546) rotate(37.428)"/>
</clipPath>
<clipPath id="clip9_233_11">
<rect width="229.744" height="165.79" fill="white" transform="translate(570.239 770.278) rotate(-142.572)"/>
</clipPath>
<clipPath id="clip10_233_11">
<rect width="229.744" height="165.79" fill="white" transform="translate(376.341 789.83) rotate(-142.572)"/>
</clipPath>
<clipPath id="clip11_233_11">
<rect width="229.744" height="165.79" fill="white" transform="translate(388.969 630.557) rotate(-142.572)"/>
</clipPath>
<clipPath id="clip12_233_11">
<rect width="229.744" height="165.79" fill="white" transform="translate(376.341 789.83) rotate(-142.572)"/>
</clipPath>
<clipPath id="clip13_233_11">
<rect width="229.744" height="165.79" fill="white" transform="translate(182.444 809.383) rotate(-142.572)"/>
</clipPath>
<clipPath id="clip14_233_11">
<rect width="229.744" height="165.79" fill="white" transform="translate(195.071 650.11) rotate(-142.572)"/>
</clipPath>
<clipPath id="clip15_233_11">
<rect width="229.744" height="165.79" fill="white" transform="translate(388.969 630.557) rotate(-142.572)"/>
</clipPath>
<clipPath id="clip16_233_11">
<rect width="229.744" height="165.79" fill="white" transform="translate(195.071 650.11) rotate(-142.572)"/>
</clipPath>
<clipPath id="clip17_233_11">
<rect width="229.744" height="165.79" fill="white" transform="translate(207.699 490.837) rotate(-142.572)"/>
</clipPath>
</defs>
</svg>
