<svg width="50" height="50" viewBox="0 0 50 50" fill="none" xmlns="http://www.w3.org/2000/svg">
<g clip-path="url(#clip0_226_180)">
<path d="M9.43471 16.3217C9.43471 15.8439 9.19586 15.4459 8.79777 15.1274V1.51274H19.9443V30.2548H21.3774V0H7.36465V15.1274C6.88694 15.3662 6.64809 15.8439 6.64809 16.3217C6.64809 17.1178 7.28503 17.7548 8.08121 17.7548C8.79777 17.7548 9.43471 17.1178 9.43471 16.3217L9.43471 16.3217ZM22.8901 37.0223C22.4124 37.0223 22.0143 36.7834 21.6959 36.465C21.9347 36.2261 22.0939 35.9076 22.0939 35.5892C22.0939 34.793 21.457 34.1561 20.6608 34.1561C19.8647 34.1561 19.2277 34.793 19.2277 35.5892C19.2277 36.2261 19.7054 36.7834 20.2627 36.9427C20.7404 37.8185 21.7755 38.4554 22.8901 38.4554H41.9188V48.5669H20.5812C14.1322 48.5669 8.79777 43.2325 8.79777 36.7038V22.3726H7.36465V36.7038C7.36465 44.0287 13.336 50 20.5812 50H43.3519V37.0223H22.8901ZM10.3105 2.94586V36.7038C10.3105 42.4363 14.9283 47.0541 20.5812 47.0541H40.4061V39.9682H22.8901C20.422 39.9682 18.4315 37.9777 18.4315 35.5096V2.94586H10.3105Z" fill="url(#paint0_linear_226_180)"/>
</g>
<defs>
<linearGradient id="paint0_linear_226_180" x1="25" y1="0" x2="25" y2="50" gradientUnits="userSpaceOnUse">
<stop stop-color="#00A3A1"/>
<stop offset="1" stop-color="#00DA9B"/>
</linearGradient>
<clipPath id="clip0_226_180">
<rect width="50" height="50" fill="white"/>
</clipPath>
</defs>
</svg>
