<svg width="58" height="84" viewBox="0 0 58 84" fill="none" xmlns="http://www.w3.org/2000/svg">
<g filter="url(#filter0_d_244_26)">
<path d="M43.3841 59H41.0215L29.4819 71.7778C29.3651 71.9031 29.1858 71.9769 29.0006 71.9769C28.8109 71.9769 28.6362 71.9031 28.5159 71.7778L16.9797 59H14.6161C14.3777 59 14.1625 59.1162 14.0619 59.3022C13.9577 59.4881 13.9878 59.7094 14.1313 59.8691L28.5182 75.7979C28.6385 75.9242 28.8132 76 29.003 76C29.1881 76 29.3674 75.9242 29.4843 75.7979L43.8688 59.8681C44.0169 59.7094 44.0401 59.4871 43.9359 59.3012C43.8376 59.1162 43.6201 59 43.3841 59Z" fill="url(#paint0_linear_244_26)"/>
<path d="M41.5415 4.71992C38.4295 1.67012 34.2905 0 29.8714 0H28.1287C23.7096 0 19.5706 1.6805 16.4585 4.71992C13.3465 7.76971 11.6245 11.8465 11.6245 16.1826V33.9004C11.6245 38.2365 13.3465 42.2925 16.4585 45.3216C19.5602 48.3402 23.7096 50 28.1287 50H29.8714C34.2905 50 38.4295 48.3402 41.5415 45.3216C44.6639 42.2925 46.3755 38.2365 46.3755 33.9004V16.1826C46.3755 11.8465 44.6639 7.78008 41.5415 4.71992ZM29 10.1141C30.3175 10.1141 31.3859 11.1826 31.3859 12.5C31.3859 13.8174 30.3175 14.8859 29 14.8859C27.6826 14.8859 26.6141 13.8174 26.6141 12.5C26.6141 11.1929 27.6826 10.1141 29 10.1141ZM13.6992 16.1826C13.6992 8.45436 20.0789 2.16805 27.9627 2.07469V8.1639C26.0021 8.63071 24.5394 10.3942 24.5394 12.5C24.5394 14.6058 26.0021 16.3693 27.9627 16.8361V21.7324H13.6992V16.1826ZM44.3009 33.9004C44.3009 41.6286 37.8278 47.9253 29.8714 47.9253H28.1287C20.1722 47.9253 13.6992 41.6286 13.6992 33.9004V23.8071H44.3009V33.9004ZM44.3009 21.7324H30.0374V16.8361C31.998 16.3693 33.4606 14.6058 33.4606 12.5C33.4606 10.3942 31.998 8.63071 30.0374 8.1639V2.07469C37.9212 2.15768 44.3009 8.45436 44.3009 16.1826V21.7324Z" fill="url(#paint1_linear_244_26)"/>
</g>
<defs>
<filter id="filter0_d_244_26" x="0" y="0" width="58" height="84" filterUnits="userSpaceOnUse" color-interpolation-filters="sRGB">
<feFlood flood-opacity="0" result="BackgroundImageFix"/>
<feColorMatrix in="SourceAlpha" type="matrix" values="0 0 0 0 0 0 0 0 0 0 0 0 0 0 0 0 0 0 127 0" result="hardAlpha"/>
<feOffset dy="4"/>
<feGaussianBlur stdDeviation="2"/>
<feComposite in2="hardAlpha" operator="out"/>
<feColorMatrix type="matrix" values="0 0 0 0 0 0 0 0 0 0 0 0 0 0 0 0 0 0 0.25 0"/>
<feBlend mode="normal" in2="BackgroundImageFix" result="effect1_dropShadow_244_26"/>
<feBlend mode="normal" in="SourceGraphic" in2="effect1_dropShadow_244_26" result="shape"/>
</filter>
<linearGradient id="paint0_linear_244_26" x1="29" y1="59" x2="29" y2="76" gradientUnits="userSpaceOnUse">
<stop stop-color="#00DA9D"/>
<stop offset="1" stop-color="#008192"/>
</linearGradient>
<linearGradient id="paint1_linear_244_26" x1="29" y1="0" x2="29" y2="50" gradientUnits="userSpaceOnUse">
<stop stop-color="#00DA9D"/>
<stop offset="1" stop-color="#008192"/>
</linearGradient>
</defs>
</svg>
