<svg width="50" height="60" viewBox="0 0 50 60" fill="none" xmlns="http://www.w3.org/2000/svg">
<path d="M48.9731 30H45.0356L25.8031 52.549C25.6083 52.7702 25.3094 52.9004 25.0009 52.9004C24.6847 52.9004 24.3935 52.7702 24.193 52.549L4.9662 30H1.02675C0.629526 30 0.270868 30.2051 0.103108 30.5332C-0.0704357 30.8614 -0.0203007 31.2519 0.218805 31.5337L24.1968 59.6433C24.3974 59.8663 24.6885 60 25.0048 60C25.3133 60 25.6122 59.8663 25.8069 59.6433L49.7811 31.5319C50.0279 31.2519 50.0665 30.8596 49.8929 30.5314C49.729 30.2051 49.3665 30 48.9731 30Z" fill="url(#paint0_linear_25_53)"/>
<path d="M48.9731 15H45.0356L25.8031 37.549C25.6083 37.7702 25.3094 37.9004 25.0009 37.9004C24.6847 37.9004 24.3935 37.7702 24.193 37.549L4.9662 15H1.02675C0.629526 15 0.270868 15.2051 0.103108 15.5332C-0.0704357 15.8614 -0.0203007 16.2519 0.218805 16.5337L24.1968 44.6433C24.3974 44.8663 24.6885 45 25.0048 45C25.3133 45 25.6122 44.8663 25.8069 44.6433L49.7811 16.5319C50.0279 16.2519 50.0665 15.8596 49.8929 15.5314C49.729 15.2051 49.3665 15 48.9731 15Z" fill="url(#paint1_linear_25_53)"/>
<path d="M48.9731 0H45.0356L25.8031 22.549C25.6083 22.7702 25.3094 22.9004 25.0009 22.9004C24.6847 22.9004 24.3935 22.7702 24.193 22.549L4.9662 0H1.02675C0.629526 0 0.270868 0.205089 0.103108 0.533231C-0.0704357 0.861373 -0.0203007 1.25193 0.218805 1.53371L24.1968 29.6433C24.3974 29.8663 24.6885 30 25.0048 30C25.3133 30 25.6122 29.8663 25.8069 29.6433L49.7811 1.53192C50.0279 1.25193 50.0665 0.859589 49.8929 0.531448C49.729 0.205089 49.3665 0 48.9731 0Z" fill="url(#paint2_linear_25_53)"/>
<defs>
<linearGradient id="paint0_linear_25_53" x1="24.9998" y1="30" x2="24.9998" y2="60" gradientUnits="userSpaceOnUse">
<stop stop-color="#00DA9D"/>
<stop offset="1" stop-color="#008192"/>
</linearGradient>
<linearGradient id="paint1_linear_25_53" x1="24.9998" y1="15" x2="24.9998" y2="45" gradientUnits="userSpaceOnUse">
<stop stop-color="#00DA9D"/>
<stop offset="1" stop-color="#008192"/>
</linearGradient>
<linearGradient id="paint2_linear_25_53" x1="24.9998" y1="0" x2="24.9998" y2="30" gradientUnits="userSpaceOnUse">
<stop stop-color="#00DA9D"/>
<stop offset="1" stop-color="#008192"/>
</linearGradient>
</defs>
</svg>
