<svg width="260" height="38" viewBox="0 0 260 38" fill="none" xmlns="http://www.w3.org/2000/svg">
<path d="M23.184 25.8L15.28 20.104V16.968L23.184 11.272V15.144L17.968 18.568L23.184 21.96V25.8ZM231.916 30.408L242.796 8.84H245.868L234.924 30.408H231.916ZM250.671 25.8V21.96L255.887 18.568L250.671 15.144V11.272L258.575 16.968V20.104L250.671 25.8Z" fill="#00DA9B"/>
<path d="M34.09 9.16H39.018V25.16H44.298V29H34.09V9.16ZM50.1422 29C49.2036 29 48.4996 28.8507 48.0302 28.552C47.5609 28.2533 47.2409 27.88 47.0702 27.432C46.9209 26.9627 46.8462 26.4933 46.8462 26.024V13.96H51.6462V23.912C51.6462 24.296 51.6782 24.6053 51.7422 24.84C51.8062 25.0533 52.0196 25.16 52.3822 25.16H53.1822V13.96H57.9823V29H50.1422ZM66.5768 29.16C65.0194 29.16 63.8354 28.9893 63.0248 28.648C62.2354 28.3067 61.6914 27.8373 61.3928 27.24C61.1154 26.6213 60.9768 25.928 60.9768 25.16V17.768C60.9768 16.9787 61.1154 16.2853 61.3928 15.688C61.6914 15.0907 62.2354 14.6213 63.0248 14.28C63.8354 13.9387 65.0194 13.768 66.5768 13.768C67.9208 13.768 68.9981 13.928 69.8088 14.248C70.6194 14.568 71.2061 15.0267 71.5688 15.624C71.9314 16.2 72.1128 16.8933 72.1128 17.704V20.2L67.3128 20.52V18.6C67.3128 18.4293 67.2808 18.1947 67.2168 17.896C67.1528 17.5973 66.9288 17.448 66.5448 17.448C66.1608 17.448 65.9368 17.5973 65.8728 17.896C65.8088 18.1947 65.7768 18.4293 65.7768 18.6V24.2C65.7768 24.392 65.8088 24.616 65.8728 24.872C65.9368 25.128 66.1608 25.256 66.5448 25.256C66.9288 25.256 67.1528 25.128 67.2168 24.872C67.2808 24.616 67.3128 24.392 67.3128 24.2V22.568L72.1128 22.248V25.224C72.1128 26.0133 71.9314 26.7067 71.5688 27.304C71.2061 27.9013 70.6194 28.36 69.8088 28.68C68.9981 29 67.9208 29.16 66.5768 29.16ZM77.8035 29C76.9075 29 76.2568 28.8507 75.8515 28.552C75.4462 28.2533 75.1902 27.7947 75.0835 27.176C74.9768 26.536 74.9235 25.7253 74.9235 24.744V18.024C74.9235 17.192 75.0408 16.4773 75.2755 15.88C75.5315 15.2613 75.9368 14.792 76.4915 14.472C77.0675 14.1307 77.8355 13.96 78.7955 13.96H86.0595V29H81.2595V17.8H80.4915C80.3208 17.8 80.1715 17.832 80.0435 17.896C79.9368 17.96 79.8515 18.056 79.7875 18.184C79.7448 18.312 79.7235 18.4827 79.7235 18.696V24.04C79.7235 24.4027 79.7555 24.6693 79.8195 24.84C79.8835 24.9893 79.9688 25.0853 80.0755 25.128C80.2035 25.1493 80.3635 25.16 80.5555 25.16H80.9075L80.4595 29H77.8035ZM93.723 29.192C92.059 29.192 90.8643 28.8827 90.139 28.264C89.4137 27.624 89.051 26.7387 89.051 25.608V23.72L93.339 23.176V25.352C93.339 25.48 93.3497 25.5973 93.371 25.704C93.3923 25.8107 93.435 25.896 93.499 25.96C93.5843 26.0027 93.7017 26.024 93.851 26.024C94.0217 26.024 94.139 25.9707 94.203 25.864C94.2883 25.736 94.331 25.5653 94.331 25.352C94.331 24.648 94.3203 24.136 94.299 23.816C94.299 23.496 94.1177 23.24 93.755 23.048C93.563 22.9413 93.371 22.8347 93.179 22.728C92.987 22.6213 92.795 22.5147 92.603 22.408C92.411 22.28 92.219 22.1627 92.027 22.056C91.835 21.9493 91.643 21.8427 91.451 21.736C90.7257 21.3093 90.1923 20.9147 89.851 20.552C89.5097 20.168 89.2857 19.7947 89.179 19.432C89.0937 19.0693 89.051 18.7067 89.051 18.344V17.576C89.051 16.232 89.4457 15.2613 90.235 14.664C91.0243 14.0667 92.2723 13.768 93.979 13.768C95.6857 13.768 96.9017 14.0347 97.627 14.568C98.3523 15.1013 98.715 15.9653 98.715 17.16V18.664L94.363 19.24V17.608C94.363 17.3947 94.331 17.2347 94.267 17.128C94.203 17 94.0643 16.936 93.851 16.936C93.7443 16.936 93.6483 16.968 93.563 17.032C93.499 17.0747 93.4457 17.1493 93.403 17.256C93.3817 17.3413 93.371 17.4587 93.371 17.608C93.371 18.1627 93.3923 18.5467 93.435 18.76C93.499 18.952 93.627 19.1333 93.819 19.304C93.9043 19.368 94.0537 19.4747 94.267 19.624C94.4803 19.752 94.7897 19.9333 95.195 20.168C95.6003 20.3813 96.123 20.6587 96.763 21C97.4457 21.3413 97.9363 21.7787 98.235 22.312C98.555 22.8453 98.715 23.5813 98.715 24.52V25.16C98.715 26.5467 98.363 27.5707 97.659 28.232C96.955 28.872 95.643 29.192 93.723 29.192ZM113.508 29.256C112.185 29.256 111.108 29.096 110.276 28.776C109.444 28.4347 108.836 27.9653 108.452 27.368C108.068 26.7707 107.876 26.0773 107.876 25.288V13.288C107.876 11.688 108.313 10.568 109.188 9.928C110.063 9.288 111.471 8.968 113.412 8.968C115.225 8.968 116.612 9.288 117.572 9.928C118.553 10.568 119.044 11.6987 119.044 13.32V15.88L114.116 16.04V14.312C114.116 13.7573 114.084 13.3947 114.02 13.224C113.977 13.032 113.796 12.936 113.476 12.936C113.113 12.936 112.911 13.0533 112.868 13.288C112.825 13.5013 112.804 13.832 112.804 14.28V24.488C112.804 24.6373 112.815 24.7653 112.836 24.872C112.879 24.9787 112.953 25.064 113.06 25.128C113.167 25.192 113.327 25.224 113.54 25.224C113.753 25.224 113.913 25.192 114.02 25.128C114.127 25.064 114.191 24.9787 114.212 24.872C114.255 24.7653 114.276 24.6373 114.276 24.488V22.472H113.412L113.668 18.344H119.044V25.288C119.044 26.0773 118.82 26.7707 118.372 27.368C117.945 27.9653 117.316 28.4347 116.484 28.776C115.673 29.096 114.681 29.256 113.508 29.256ZM127.327 29.16C125.769 29.16 124.585 28.9893 123.775 28.648C122.985 28.3067 122.441 27.8373 122.143 27.24C121.865 26.6213 121.727 25.928 121.727 25.16V17.768C121.727 16.9787 121.865 16.2853 122.143 15.688C122.441 15.0907 122.985 14.6213 123.775 14.28C124.585 13.9387 125.769 13.768 127.327 13.768C128.671 13.768 129.748 13.928 130.559 14.248C131.369 14.568 131.956 15.0267 132.319 15.624C132.681 16.2 132.863 16.8933 132.863 17.704V25.224C132.863 26.0133 132.681 26.7067 132.319 27.304C131.956 27.9013 131.369 28.36 130.559 28.68C129.748 29 128.671 29.16 127.327 29.16ZM127.295 25.256C127.679 25.256 127.903 25.128 127.967 24.872C128.031 24.616 128.063 24.392 128.063 24.2V18.6C128.063 18.4293 128.031 18.1947 127.967 17.896C127.903 17.5973 127.679 17.448 127.295 17.448C126.911 17.448 126.687 17.5973 126.623 17.896C126.559 18.1947 126.527 18.4293 126.527 18.6V24.2C126.527 24.392 126.559 24.616 126.623 24.872C126.687 25.128 126.911 25.256 127.295 25.256ZM135.863 13.96H139.799L140.247 15.528C140.545 14.9093 140.993 14.4507 141.591 14.152C142.209 13.832 142.913 13.672 143.703 13.672C144.727 13.672 145.527 13.9387 146.103 14.472C146.7 14.984 146.999 15.8053 146.999 16.936V29H142.199V18.568C142.199 18.2053 142.145 17.9493 142.039 17.8C141.953 17.6293 141.761 17.544 141.463 17.544C141.185 17.544 140.983 17.6293 140.855 17.8C140.727 17.9493 140.663 18.2053 140.663 18.568V29H135.863V13.96ZM155.496 29.16C153.938 29.16 152.754 28.9893 151.944 28.648C151.154 28.3067 150.61 27.8373 150.312 27.24C150.034 26.6213 149.896 25.928 149.896 25.16V17.768C149.896 16.9787 150.034 16.2853 150.312 15.688C150.61 15.0907 151.154 14.6213 151.944 14.28C152.754 13.9387 153.938 13.768 155.496 13.768C156.84 13.768 157.917 13.928 158.728 14.248C159.538 14.568 160.125 15.0267 160.488 15.624C160.85 16.2 161.032 16.8933 161.032 17.704V20.2L156.232 20.52V18.6C156.232 18.4293 156.2 18.1947 156.136 17.896C156.072 17.5973 155.848 17.448 155.464 17.448C155.08 17.448 154.856 17.5973 154.792 17.896C154.728 18.1947 154.696 18.4293 154.696 18.6V24.2C154.696 24.392 154.728 24.616 154.792 24.872C154.856 25.128 155.08 25.256 155.464 25.256C155.848 25.256 156.072 25.128 156.136 24.872C156.2 24.616 156.232 24.392 156.232 24.2V22.568L161.032 22.248V25.224C161.032 26.0133 160.85 26.7067 160.488 27.304C160.125 27.9013 159.538 28.36 158.728 28.68C157.917 29 156.84 29.16 155.496 29.16ZM154.952 35.56C154.418 35.56 153.928 35.4853 153.48 35.336C153.032 35.1867 152.605 35.016 152.2 34.824L153.224 33.096C153.33 33.2453 153.533 33.3733 153.832 33.48C154.13 33.5867 154.408 33.64 154.664 33.64C155.09 33.64 155.4 33.5333 155.592 33.32C155.805 33.128 155.912 32.8933 155.912 32.616C155.912 32.4453 155.816 32.2533 155.624 32.04C155.453 31.848 155.186 31.752 154.824 31.752C154.61 31.752 154.397 31.784 154.184 31.848C153.97 31.912 153.821 31.9867 153.736 32.072L152.488 31.208L154.152 29H156.04L154.824 30.408C155.144 30.2373 155.517 30.152 155.944 30.152C156.882 30.152 157.576 30.3867 158.024 30.856C158.493 31.3253 158.728 31.8587 158.728 32.456C158.728 33.2027 158.408 33.9067 157.768 34.568C157.149 35.2293 156.21 35.56 154.952 35.56ZM166.722 29C165.826 29 165.176 28.8507 164.77 28.552C164.365 28.2533 164.109 27.7947 164.002 27.176C163.896 26.536 163.842 25.7253 163.842 24.744V18.024C163.842 17.192 163.96 16.4773 164.194 15.88C164.45 15.2613 164.856 14.792 165.41 14.472C165.986 14.1307 166.754 13.96 167.714 13.96H174.978V29H170.178V17.8H169.41C169.24 17.8 169.09 17.832 168.962 17.896C168.856 17.96 168.77 18.056 168.706 18.184C168.664 18.312 168.642 18.4827 168.642 18.696V24.04C168.642 24.4027 168.674 24.6693 168.738 24.84C168.802 24.9893 168.888 25.0853 168.994 25.128C169.122 25.1493 169.282 25.16 169.474 25.16H169.826L169.378 29H166.722ZM178.194 9.16H182.994V29H178.194V9.16ZM189.56 29L185.016 13.96H189.496L191.288 20.904H191.064L192.568 13.96H197.112L192.568 29H189.56ZM204.396 29.16C202.838 29.16 201.654 28.9893 200.844 28.648C200.054 28.3067 199.51 27.8373 199.212 27.24C198.934 26.6213 198.796 25.928 198.796 25.16V17.768C198.796 16.9787 198.934 16.2853 199.212 15.688C199.51 15.0907 200.054 14.6213 200.844 14.28C201.654 13.9387 202.838 13.768 204.396 13.768C205.74 13.768 206.817 13.928 207.628 14.248C208.438 14.568 209.025 15.0267 209.388 15.624C209.75 16.2 209.932 16.8933 209.932 17.704V20.2L205.132 20.52V18.6C205.132 18.4293 205.1 18.1947 205.036 17.896C204.972 17.5973 204.748 17.448 204.364 17.448C203.98 17.448 203.756 17.5973 203.692 17.896C203.628 18.1947 203.596 18.4293 203.596 18.6V24.2C203.596 24.392 203.628 24.616 203.692 24.872C203.756 25.128 203.98 25.256 204.364 25.256C204.748 25.256 204.972 25.128 205.036 24.872C205.1 24.616 205.132 24.392 205.132 24.2V23.592L209.932 23.272V25.224C209.932 26.0133 209.75 26.7067 209.388 27.304C209.025 27.9013 208.438 28.36 207.628 28.68C206.817 29 205.74 29.16 204.396 29.16ZM199.308 22.44V19.944H209.932V22.44H199.308ZM217.379 29.192C215.715 29.192 214.521 28.8827 213.795 28.264C213.07 27.624 212.707 26.7387 212.707 25.608V23.72L216.995 23.176V25.352C216.995 25.48 217.006 25.5973 217.027 25.704C217.049 25.8107 217.091 25.896 217.155 25.96C217.241 26.0027 217.358 26.024 217.507 26.024C217.678 26.024 217.795 25.9707 217.859 25.864C217.945 25.736 217.987 25.5653 217.987 25.352C217.987 24.648 217.977 24.136 217.955 23.816C217.955 23.496 217.774 23.24 217.411 23.048C217.219 22.9413 217.027 22.8347 216.835 22.728C216.643 22.6213 216.451 22.5147 216.259 22.408C216.067 22.28 215.875 22.1627 215.683 22.056C215.491 21.9493 215.299 21.8427 215.107 21.736C214.382 21.3093 213.849 20.9147 213.507 20.552C213.166 20.168 212.942 19.7947 212.835 19.432C212.75 19.0693 212.707 18.7067 212.707 18.344V17.576C212.707 16.232 213.102 15.2613 213.891 14.664C214.681 14.0667 215.929 13.768 217.635 13.768C219.342 13.768 220.558 14.0347 221.283 14.568C222.009 15.1013 222.371 15.9653 222.371 17.16V18.664L218.019 19.24V17.608C218.019 17.3947 217.987 17.2347 217.923 17.128C217.859 17 217.721 16.936 217.507 16.936C217.401 16.936 217.305 16.968 217.219 17.032C217.155 17.0747 217.102 17.1493 217.059 17.256C217.038 17.3413 217.027 17.4587 217.027 17.608C217.027 18.1627 217.049 18.5467 217.091 18.76C217.155 18.952 217.283 19.1333 217.475 19.304C217.561 19.368 217.71 19.4747 217.923 19.624C218.137 19.752 218.446 19.9333 218.851 20.168C219.257 20.3813 219.779 20.6587 220.419 21C221.102 21.3413 221.593 21.7787 221.891 22.312C222.211 22.8453 222.371 23.5813 222.371 24.52V25.16C222.371 26.5467 222.019 27.5707 221.315 28.232C220.611 28.872 219.299 29.192 217.379 29.192Z" fill="white"/>
</svg>
